<?xml version="1.0" encoding="utf-8"?>
<!-- Generator: Adobe Illustrator 16.0.0, SVG Export Plug-In . SVG Version: 6.00 Build 0)  -->
<!DOCTYPE svg PUBLIC "-//W3C//DTD SVG 1.0//EN" "http://www.w3.org/TR/2001/REC-SVG-20010904/DTD/svg10.dtd">
<svg version="1.0" id="_x38_0-fruit-icons-Squash-line-art"
	 xmlns="http://www.w3.org/2000/svg" xmlns:xlink="http://www.w3.org/1999/xlink" x="0px" y="0px" width="231px" height="284px" fill="#DEA900"
	 viewBox="0 0 231 284" enable-background="new 0 0 231 284" xml:space="preserve">
<g>
	<path fill="#DEA900" d="M177.493,207.814c-1.709-15.754-8.819-27.728-10.957-31.021c-6.507-10.026-6.874-16.084-7.962-34.063
		c-0.292-4.817-0.622-10.278-1.135-16.899c-2.444-31.633-3.025-39.149-9.783-51.602c-8.771-16.154-30.067-17.029-30.971-17.059
		c-0.021-0.001-0.045-0.001-0.065-0.001c-1.074,0-1.963,0.854-1.998,1.935c-0.036,1.104,0.83,2.028,1.935,2.064
		c0.197,0.007,19.897,0.808,27.584,14.969c6.353,11.703,6.86,18.3,9.312,50.002c0.509,6.587,0.839,12.03,1.129,16.833
		c1.104,18.258,1.521,25.09,8.602,36c2.018,3.106,8.723,14.397,10.336,29.274c1.543,14.218-2.106,26.501-10.85,36.507
		c-9.911,11.348-15.684,11.689-15.688,11.691c-0.562-0.008-1.092,0.219-1.476,0.613c-0.046,0.047-4.616,4.664-12.866,5.196
		c-5.623,0.363-10.133-0.325-10.178-0.334c-0.428-0.067-0.871,0.011-1.255,0.213c-1.128,0.604-4.655,2.087-7.368,1.703
		c-2.733-0.394-3.62-0.683-3.796-0.746c-0.281-0.151-0.598-0.237-0.922-0.243c-2.569-0.048-7.242-0.339-8.847-0.923l-0.645-0.233
		c-15.095-8.57-22.75-21.771-22.746-39.23c0.001-8.455,1.356-13.521,2.791-18.886c1.359-5.078,2.765-10.33,2.858-18.425
		c0.013-1.104-0.872-2.012-1.977-2.022c-0.008,0-0.016,0-0.023,0c-1.094,0-1.987,0.879-2,1.978
		c-0.088,7.592-1.367,12.375-2.722,17.438c-1.439,5.379-2.927,10.938-2.928,19.917c-0.004,14.508,5.148,26.619,14.985,35.629
		c-4.975-2.02-10.702-5.295-14.035-10.4c-7.897-12.098-13.935-34.184-7.195-59.894c1.461-5.576,2.601-9.653,3.515-12.935
		c3.253-11.647,3.276-11.879,2.484-24.495c-0.104-1.654-0.222-3.531-0.347-5.688c-0.204-3.484-0.568-7.312-0.954-11.365
		c-2.083-21.883-4.937-51.854,15.324-67.17c1.564-1.183,2.968-2.044,4.19-2.682c-0.176,0.176-0.353,0.345-0.527,0.53
		c-7.796,8.273-9.154,23.423-10.221,43.923c-0.058,1.103,0.79,2.043,1.894,2.101c0.035,0.002,0.07,0.003,0.105,0.003
		c1.057,0,1.939-0.828,1.995-1.896c0.989-19.005,2.29-34.12,9.138-41.387c4.245-4.508,9.289-5.809,9.339-5.821
		c1.069-0.263,1.726-1.343,1.465-2.414c-0.262-1.073-1.342-1.738-2.416-1.471c-0.117,0.028-1.492,0.379-3.436,1.29
		c0.009-2.1,0.265-6.438,2.062-9.559c5.557-9.651,3.994-16.933,3.056-19.636c2.699-3.505,9.121-3.707,12.836-3.707
		c0.385,0,0.739,0.002,1.065,0.003c2.435,5.415,4.79,16.099,2.325,26.607c-0.254,1.075,0.414,2.152,1.488,2.404
		c1.08,0.254,2.15-0.414,2.403-1.49c2.894-12.332-0.329-24.976-3.2-30.465c-0.363-0.692-1.082-1.109-1.877-1.07
		c-0.357,0.02-0.857,0.017-1.461,0.013c-4.546-0.019-13.967-0.056-17.579,6.528c-0.315,0.573-0.321,1.28-0.031,1.866
		c0.138,0.276,3.295,6.892-2.496,16.95c-2.147,3.729-2.55,8.556-2.594,11.174c-2.061,0.444-5.516,1.67-9.94,5.014
		c-22.039,16.661-19.062,47.917-16.89,70.739c0.383,4.015,0.744,7.808,0.942,11.218c0.127,2.162,0.245,4.048,0.349,5.707
		c0.757,12.062,0.757,12.062-2.345,23.17c-0.919,3.291-2.062,7.388-3.531,12.992c-8.898,33.949,3.655,56.877,7.715,63.096
		c7.383,11.312,23.987,14.588,26.072,14.959l2.351,0.854c2.468,0.897,8.06,1.108,9.73,1.151c0.69,0.256,1.998,0.582,4.638,0.961
		c0.491,0.067,0.987,0.101,1.483,0.101c3.229,0,6.423-1.321,7.728-1.935c1.522,0.19,5.551,0.601,10.412,0.283
		c8.182-0.529,13.287-4.427,14.928-5.886c2.304-0.364,8.582-2.364,17.854-12.979C175.052,236.656,179.137,222.973,177.493,207.814z"
		/>
	<path fill="#DEA900" d="M81.923,111.69c-1.095-0.07-2.033,0.816-2.076,1.92c-0.058,1.451-0.111,2.929-0.16,4.434
		c-0.036,1.104,0.83,2.028,1.934,2.064c0.022,0.001,0.045,0.001,0.066,0.001c1.074,0,1.963-0.854,1.998-1.935
		c0.049-1.497,0.103-2.965,0.158-4.408C83.887,112.664,83.027,111.733,81.923,111.69z"/>
</g>
</svg>
